<?xml version="1.0" encoding="UTF-8" standalone="no"?><svg xmlns="http://www.w3.org/2000/svg" xmlns:xlink="http://www.w3.org/1999/xlink" contentStyleType="text/css" height="1101px" preserveAspectRatio="none" style="width:2319px;height:1101px;background:#FFFFFF;" version="1.1" viewBox="0 0 2319 1101" width="2319px" zoomAndPan="magnify"><defs/><g><!--MD5=[a573c1483b76fc80db368c55b377bdc2]
cluster medzoom::account_screen.dart--><g id="cluster_medzoom::account_screen.dart"><path d="M8.5,817 L229.5,817 A3.75,3.75 0 0 1 232,819.5 L239,840.6094 L498.5,840.6094 A2.5,2.5 0 0 1 501,843.1094 L501,932.5 A2.5,2.5 0 0 1 498.5,935 L8.5,935 A2.5,2.5 0 0 1 6,932.5 L6,819.5 A2.5,2.5 0 0 1 8.5,817 " fill="none" style="stroke:#000000;stroke-width:1.5;"/><line style="stroke:#000000;stroke-width:1.5;" x1="6" x2="239" y1="840.6094" y2="840.6094"/><text fill="#000000" font-family="sans-serif" font-size="14" font-weight="bold" lengthAdjust="spacing" textLength="220" x="10" y="833.5332">medzoom::account_screen.dart</text></g><!--MD5=[1b91236ccc4e258431d00b8b19fdf6ca]
cluster flutter::src::widgets::framework.dart--><g id="cluster_flutter::src::widgets::framework.dart"><path d="M711.5,332 L962.5,332 A3.75,3.75 0 0 1 965,334.5 L972,355.6094 L1132.5,355.6094 A2.5,2.5 0 0 1 1135,358.1094 L1135,429.5 A2.5,2.5 0 0 1 1132.5,432 L711.5,432 A2.5,2.5 0 0 1 709,429.5 L709,334.5 A2.5,2.5 0 0 1 711.5,332 " fill="none" style="stroke:#000000;stroke-width:1.5;"/><line style="stroke:#000000;stroke-width:1.5;" x1="709" x2="972" y1="355.6094" y2="355.6094"/><text fill="#000000" font-family="sans-serif" font-size="14" font-weight="bold" lengthAdjust="spacing" textLength="250" x="713" y="348.5332">flutter::src::widgets::framework.dart</text></g><!--MD5=[35a0e8c30fcbfea46e220579f6b87670]
cluster medzoom::colors.dart--><g id="cluster_medzoom::colors.dart"><path d="M1848.5,6 L2000.5,6 A3.75,3.75 0 0 1 2003,8.5 L2010,29.6094 L2089.5,29.6094 A2.5,2.5 0 0 1 2092,32.1094 L2092,755.5 A2.5,2.5 0 0 1 2089.5,758 L1848.5,758 A2.5,2.5 0 0 1 1846,755.5 L1846,8.5 A2.5,2.5 0 0 1 1848.5,6 " fill="none" style="stroke:#000000;stroke-width:1.5;"/><line style="stroke:#000000;stroke-width:1.5;" x1="1846" x2="2010" y1="29.6094" y2="29.6094"/><text fill="#000000" font-family="sans-serif" font-size="14" font-weight="bold" lengthAdjust="spacing" textLength="151" x="1850" y="22.5332">medzoom::colors.dart</text></g><!--MD5=[38be18612ed71996bdf82b0e8a8b954f]
cluster dart::ui--><g id="cluster_dart::ui"><path d="M1922.5,826 L1972.5,826 A3.75,3.75 0 0 1 1975,828.5 L1982,849.6094 L2015.5,849.6094 A2.5,2.5 0 0 1 2018,852.1094 L2018,923.5 A2.5,2.5 0 0 1 2015.5,926 L1922.5,926 A2.5,2.5 0 0 1 1920,923.5 L1920,828.5 A2.5,2.5 0 0 1 1922.5,826 " fill="none" style="stroke:#000000;stroke-width:1.5;"/><line style="stroke:#000000;stroke-width:1.5;" x1="1920" x2="1982" y1="849.6094" y2="849.6094"/><text fill="#000000" font-family="sans-serif" font-size="14" font-weight="bold" lengthAdjust="spacing" textLength="49" x="1924" y="842.5332">dart::ui</text></g><!--MD5=[eb3197686962dbe982f90c23bc1084fe]
cluster medzoom::hildegard_screen.dart--><g id="cluster_medzoom::hildegard_screen.dart"><path d="M527.5,782 L759.5,782 A3.75,3.75 0 0 1 762,784.5 L769,805.6094 L1035.5,805.6094 A2.5,2.5 0 0 1 1038,808.1094 L1038,967.5 A2.5,2.5 0 0 1 1035.5,970 L527.5,970 A2.5,2.5 0 0 1 525,967.5 L525,784.5 A2.5,2.5 0 0 1 527.5,782 " fill="none" style="stroke:#000000;stroke-width:1.5;"/><line style="stroke:#000000;stroke-width:1.5;" x1="525" x2="769" y1="805.6094" y2="805.6094"/><text fill="#000000" font-family="sans-serif" font-size="14" font-weight="bold" lengthAdjust="spacing" textLength="231" x="529" y="798.5332">medzoom::hildegard_screen.dart</text></g><!--MD5=[633e2d5e0bc58f03f9fea1682f22c548]
cluster medzoom::main.dart--><g id="cluster_medzoom::main.dart"><path d="M1064.5,782 L1205.5,782 A3.75,3.75 0 0 1 1208,784.5 L1215,805.6094 L1632.5,805.6094 A2.5,2.5 0 0 1 1635,808.1094 L1635,967.5 A2.5,2.5 0 0 1 1632.5,970 L1064.5,970 A2.5,2.5 0 0 1 1062,967.5 L1062,784.5 A2.5,2.5 0 0 1 1064.5,782 " fill="none" style="stroke:#000000;stroke-width:1.5;"/><line style="stroke:#000000;stroke-width:1.5;" x1="1062" x2="1215" y1="805.6094" y2="805.6094"/><text fill="#000000" font-family="sans-serif" font-size="14" font-weight="bold" lengthAdjust="spacing" textLength="140" x="1066" y="798.5332">medzoom::main.dart</text></g><!--MD5=[e06b2be89d5a0e5a906fffa5e578fb31]
cluster flutter::src::widgets::editable_text.dart--><g id="cluster_flutter::src::widgets::editable_text.dart"><path d="M1078.5,994 L1347.5,994 A3.75,3.75 0 0 1 1350,996.5 L1357,1017.6094 L1357.5,1017.6094 A2.5,2.5 0 0 1 1360,1020.1094 L1360,1091.5 A2.5,2.5 0 0 1 1357.5,1094 L1078.5,1094 A2.5,2.5 0 0 1 1076,1091.5 L1076,996.5 A2.5,2.5 0 0 1 1078.5,994 " fill="none" style="stroke:#000000;stroke-width:1.5;"/><line style="stroke:#000000;stroke-width:1.5;" x1="1076" x2="1357" y1="1017.6094" y2="1017.6094"/><text fill="#000000" font-family="sans-serif" font-size="14" font-weight="bold" lengthAdjust="spacing" textLength="268" x="1080" y="1010.5332">flutter::src::widgets::editable_text.dart</text></g><!--MD5=[91f6ef9326669a6e12293f4473d2f7c8]
cluster medzoom::patients_screen.dart--><g id="cluster_medzoom::patients_screen.dart"><path d="M1661.5,817 L1883.5,817 A3.75,3.75 0 0 1 1886,819.5 L1893,840.6094 L1893.5,840.6094 A2.5,2.5 0 0 1 1896,843.1094 L1896,932.5 A2.5,2.5 0 0 1 1893.5,935 L1661.5,935 A2.5,2.5 0 0 1 1659,932.5 L1659,819.5 A2.5,2.5 0 0 1 1661.5,817 " fill="none" style="stroke:#000000;stroke-width:1.5;"/><line style="stroke:#000000;stroke-width:1.5;" x1="1659" x2="1893" y1="840.6094" y2="840.6094"/><text fill="#000000" font-family="sans-serif" font-size="14" font-weight="bold" lengthAdjust="spacing" textLength="221" x="1663" y="833.5332">medzoom::patients_screen.dart</text></g><!--MD5=[c83dd6ace2451a6251443e7717fa0e09]
cluster medzoom::temp_data.dart--><g id="cluster_medzoom::temp_data.dart"><path d="M2118.5,288 L2299.5,288 A3.75,3.75 0 0 1 2302,290.5 L2309,311.6094 L2309.5,311.6094 A2.5,2.5 0 0 1 2312,314.1094 L2312,473.5 A2.5,2.5 0 0 1 2309.5,476 L2118.5,476 A2.5,2.5 0 0 1 2116,473.5 L2116,290.5 A2.5,2.5 0 0 1 2118.5,288 " fill="none" style="stroke:#000000;stroke-width:1.5;"/><line style="stroke:#000000;stroke-width:1.5;" x1="2116" x2="2309" y1="311.6094" y2="311.6094"/><text fill="#000000" font-family="sans-serif" font-size="14" font-weight="bold" lengthAdjust="spacing" textLength="180" x="2120" y="304.5332">medzoom::temp_data.dart</text></g><!--MD5=[fe1cc2acb8d402d7636c7d0ead1858f7]
class medzoom::account_screen.dart::AccountScreen--><g id="elem_medzoom::account_screen.dart::AccountScreen"><rect codeLine="3" fill="#F1F1F1" height="65.6094" id="medzoom::account_screen.dart::AccountScreen" rx="2.5" ry="2.5" style="stroke:#181818;stroke-width:0.5;" width="258" x="227" y="853"/><ellipse cx="303.75" cy="869" fill="#ADD1B2" rx="11" ry="11" style="stroke:#181818;stroke-width:1.0;"/><path d="M306.5156,864.875 Q306.6719,864.6563 306.8594,864.5469 Q307.0469,864.4375 307.2656,864.4375 Q307.6406,864.4375 307.875,864.7031 Q308.1094,864.9531 308.1094,865.5625 L308.1094,867.0156 Q308.1094,867.625 307.875,867.8906 Q307.6406,868.1563 307.2656,868.1563 Q306.9219,868.1563 306.7188,867.9531 Q306.5156,867.7656 306.4063,867.25 Q306.3594,866.8906 306.1719,866.7031 Q305.8438,866.3281 305.2344,866.1094 Q304.625,865.8906 304,865.8906 Q303.2344,865.8906 302.5938,866.2188 Q301.9688,866.5469 301.4688,867.2969 Q300.9844,868.0469 300.9844,869.0781 L300.9844,870.1719 Q300.9844,871.4063 301.875,872.2344 Q302.7656,873.0469 304.3594,873.0469 Q305.2969,873.0469 305.9531,872.7969 Q306.3438,872.6406 306.7656,872.2031 Q307.0313,871.9375 307.1719,871.8594 Q307.3281,871.7813 307.5313,871.7813 Q307.8594,871.7813 308.1094,872.0469 Q308.375,872.2969 308.375,872.6406 Q308.375,872.9844 308.0313,873.3906 Q307.5313,873.9688 306.7344,874.2969 Q305.6563,874.75 304.3594,874.75 Q302.8438,874.75 301.6406,874.125 Q300.6563,873.625 299.9688,872.5625 Q299.2813,871.4844 299.2813,870.2031 L299.2813,869.0469 Q299.2813,867.7188 299.8906,866.5781 Q300.5156,865.4219 301.6094,864.8125 Q302.7031,864.1875 303.9375,864.1875 Q304.6719,864.1875 305.3125,864.3594 Q305.9688,864.5156 306.5156,864.875 Z " fill="#000000"/><text fill="#000000" font-family="sans-serif" font-size="14" lengthAdjust="spacing" textLength="96" x="324.25" y="874.7285">AccountScreen</text><line style="stroke:#181818;stroke-width:0.5;" x1="228" x2="484" y1="885" y2="885"/><line style="stroke:#181818;stroke-width:0.5;" x1="228" x2="484" y1="893" y2="893"/><ellipse cx="238" cy="907.3047" fill="#84BE84" rx="3" ry="3" style="stroke:#038048;stroke-width:1.0;"/><text fill="#000000" font-family="sans-serif" font-size="14" lengthAdjust="spacing" textLength="232" x="247" y="911.5332">State&lt;AccountScreen&gt; createState()</text></g><!--MD5=[ac59d0ac95e66301aea7911fd9891198]
class medzoom::account_screen.dart::_AccountScreenState--><g id="elem_medzoom::account_screen.dart::_AccountScreenState"><rect codeLine="9" fill="#F1F1F1" height="65.6094" id="medzoom::account_screen.dart::_AccountScreenState" rx="2.5" ry="2.5" style="stroke:#181818;stroke-width:0.5;" width="169" x="22.5" y="853"/><ellipse cx="37.5" cy="869" fill="#ADD1B2" rx="11" ry="11" style="stroke:#181818;stroke-width:1.0;"/><path d="M40.2656,864.875 Q40.4219,864.6563 40.6094,864.5469 Q40.7969,864.4375 41.0156,864.4375 Q41.3906,864.4375 41.625,864.7031 Q41.8594,864.9531 41.8594,865.5625 L41.8594,867.0156 Q41.8594,867.625 41.625,867.8906 Q41.3906,868.1563 41.0156,868.1563 Q40.6719,868.1563 40.4688,867.9531 Q40.2656,867.7656 40.1563,867.25 Q40.1094,866.8906 39.9219,866.7031 Q39.5938,866.3281 38.9844,866.1094 Q38.375,865.8906 37.75,865.8906 Q36.9844,865.8906 36.3438,866.2188 Q35.7188,866.5469 35.2188,867.2969 Q34.7344,868.0469 34.7344,869.0781 L34.7344,870.1719 Q34.7344,871.4063 35.625,872.2344 Q36.5156,873.0469 38.1094,873.0469 Q39.0469,873.0469 39.7031,872.7969 Q40.0938,872.6406 40.5156,872.2031 Q40.7813,871.9375 40.9219,871.8594 Q41.0781,871.7813 41.2813,871.7813 Q41.6094,871.7813 41.8594,872.0469 Q42.125,872.2969 42.125,872.6406 Q42.125,872.9844 41.7813,873.3906 Q41.2813,873.9688 40.4844,874.2969 Q39.4063,874.75 38.1094,874.75 Q36.5938,874.75 35.3906,874.125 Q34.4063,873.625 33.7188,872.5625 Q33.0313,871.4844 33.0313,870.2031 L33.0313,869.0469 Q33.0313,867.7188 33.6406,866.5781 Q34.2656,865.4219 35.3594,864.8125 Q36.4531,864.1875 37.6875,864.1875 Q38.4219,864.1875 39.0625,864.3594 Q39.7188,864.5156 40.2656,864.875 Z " fill="#000000"/><text fill="#000000" font-family="sans-serif" font-size="14" lengthAdjust="spacing" textLength="137" x="51.5" y="874.7285">_AccountScreenState</text><line style="stroke:#181818;stroke-width:0.5;" x1="23.5" x2="190.5" y1="885" y2="885"/><line style="stroke:#181818;stroke-width:0.5;" x1="23.5" x2="190.5" y1="893" y2="893"/><ellipse cx="33.5" cy="907.3047" fill="#84BE84" rx="3" ry="3" style="stroke:#038048;stroke-width:1.0;"/><text fill="#000000" font-family="sans-serif" font-size="14" lengthAdjust="spacing" textLength="88" x="42.5" y="911.5332">Widget build()</text></g><!--MD5=[aa3f7eeafec522ba9bc8f59b3155082c]
class flutter::src::widgets::framework.dart::StatefulWidget--><g id="elem_flutter::src::widgets::framework.dart::StatefulWidget"><rect fill="#F1F1F1" height="48" id="flutter::src::widgets::framework.dart::StatefulWidget" rx="2.5" ry="2.5" style="stroke:#181818;stroke-width:0.5;" width="124" x="826" y="368"/><ellipse cx="841" cy="384" fill="#ADD1B2" rx="11" ry="11" style="stroke:#181818;stroke-width:1.0;"/><path d="M843.7656,379.875 Q843.9219,379.6563 844.1094,379.5469 Q844.2969,379.4375 844.5156,379.4375 Q844.8906,379.4375 845.125,379.7031 Q845.3594,379.9531 845.3594,380.5625 L845.3594,382.0156 Q845.3594,382.625 845.125,382.8906 Q844.8906,383.1563 844.5156,383.1563 Q844.1719,383.1563 843.9688,382.9531 Q843.7656,382.7656 843.6563,382.25 Q843.6094,381.8906 843.4219,381.7031 Q843.0938,381.3281 842.4844,381.1094 Q841.875,380.8906 841.25,380.8906 Q840.4844,380.8906 839.8438,381.2188 Q839.2188,381.5469 838.7188,382.2969 Q838.2344,383.0469 838.2344,384.0781 L838.2344,385.1719 Q838.2344,386.4063 839.125,387.2344 Q840.0156,388.0469 841.6094,388.0469 Q842.5469,388.0469 843.2031,387.7969 Q843.5938,387.6406 844.0156,387.2031 Q844.2813,386.9375 844.4219,386.8594 Q844.5781,386.7813 844.7813,386.7813 Q845.1094,386.7813 845.3594,387.0469 Q845.625,387.2969 845.625,387.6406 Q845.625,387.9844 845.2813,388.3906 Q844.7813,388.9688 843.9844,389.2969 Q842.9063,389.75 841.6094,389.75 Q840.0938,389.75 838.8906,389.125 Q837.9063,388.625 837.2188,387.5625 Q836.5313,386.4844 836.5313,385.2031 L836.5313,384.0469 Q836.5313,382.7188 837.1406,381.5781 Q837.7656,380.4219 838.8594,379.8125 Q839.9531,379.1875 841.1875,379.1875 Q841.9219,379.1875 842.5625,379.3594 Q843.2188,379.5156 843.7656,379.875 Z " fill="#000000"/><text fill="#000000" font-family="sans-serif" font-size="14" lengthAdjust="spacing" textLength="92" x="855" y="389.7285">StatefulWidget</text><line style="stroke:#181818;stroke-width:0.5;" x1="827" x2="949" y1="400" y2="400"/><line style="stroke:#181818;stroke-width:0.5;" x1="827" x2="949" y1="408" y2="408"/></g><!--MD5=[9432619776e71801fd4b58594ef73518]
class flutter::src::widgets::framework.dart::State--><g id="elem_flutter::src::widgets::framework.dart::State"><rect fill="#F1F1F1" height="48" id="flutter::src::widgets::framework.dart::State" rx="2.5" ry="2.5" style="stroke:#181818;stroke-width:0.5;" width="65" x="725.5" y="368"/><ellipse cx="740.5" cy="384" fill="#ADD1B2" rx="11" ry="11" style="stroke:#181818;stroke-width:1.0;"/><path d="M743.2656,379.875 Q743.4219,379.6563 743.6094,379.5469 Q743.7969,379.4375 744.0156,379.4375 Q744.3906,379.4375 744.625,379.7031 Q744.8594,379.9531 744.8594,380.5625 L744.8594,382.0156 Q744.8594,382.625 744.625,382.8906 Q744.3906,383.1563 744.0156,383.1563 Q743.6719,383.1563 743.4688,382.9531 Q743.2656,382.7656 743.1563,382.25 Q743.1094,381.8906 742.9219,381.7031 Q742.5938,381.3281 741.9844,381.1094 Q741.375,380.8906 740.75,380.8906 Q739.9844,380.8906 739.3438,381.2188 Q738.7188,381.5469 738.2188,382.2969 Q737.7344,383.0469 737.7344,384.0781 L737.7344,385.1719 Q737.7344,386.4063 738.625,387.2344 Q739.5156,388.0469 741.1094,388.0469 Q742.0469,388.0469 742.7031,387.7969 Q743.0938,387.6406 743.5156,387.2031 Q743.7813,386.9375 743.9219,386.8594 Q744.0781,386.7813 744.2813,386.7813 Q744.6094,386.7813 744.8594,387.0469 Q745.125,387.2969 745.125,387.6406 Q745.125,387.9844 744.7813,388.3906 Q744.2813,388.9688 743.4844,389.2969 Q742.4063,389.75 741.1094,389.75 Q739.5938,389.75 738.3906,389.125 Q737.4063,388.625 736.7188,387.5625 Q736.0313,386.4844 736.0313,385.2031 L736.0313,384.0469 Q736.0313,382.7188 736.6406,381.5781 Q737.2656,380.4219 738.3594,379.8125 Q739.4531,379.1875 740.6875,379.1875 Q741.4219,379.1875 742.0625,379.3594 Q742.7188,379.5156 743.2656,379.875 Z " fill="#000000"/><text fill="#000000" font-family="sans-serif" font-size="14" lengthAdjust="spacing" textLength="33" x="754.5" y="389.7285">State</text><line style="stroke:#181818;stroke-width:0.5;" x1="726.5" x2="789.5" y1="400" y2="400"/><line style="stroke:#181818;stroke-width:0.5;" x1="726.5" x2="789.5" y1="408" y2="408"/></g><!--MD5=[efc9ff8382eabd0f0b822d1be18a98a9]
class flutter::src::widgets::framework.dart::StatelessWidget--><g id="elem_flutter::src::widgets::framework.dart::StatelessWidget"><rect fill="#F1F1F1" height="48" id="flutter::src::widgets::framework.dart::StatelessWidget" rx="2.5" ry="2.5" style="stroke:#181818;stroke-width:0.5;" width="134" x="985" y="368"/><ellipse cx="1000" cy="384" fill="#ADD1B2" rx="11" ry="11" style="stroke:#181818;stroke-width:1.0;"/><path d="M1002.7656,379.875 Q1002.9219,379.6563 1003.1094,379.5469 Q1003.2969,379.4375 1003.5156,379.4375 Q1003.8906,379.4375 1004.125,379.7031 Q1004.3594,379.9531 1004.3594,380.5625 L1004.3594,382.0156 Q1004.3594,382.625 1004.125,382.8906 Q1003.8906,383.1563 1003.5156,383.1563 Q1003.1719,383.1563 1002.9688,382.9531 Q1002.7656,382.7656 1002.6563,382.25 Q1002.6094,381.8906 1002.4219,381.7031 Q1002.0938,381.3281 1001.4844,381.1094 Q1000.875,380.8906 1000.25,380.8906 Q999.4844,380.8906 998.8438,381.2188 Q998.2188,381.5469 997.7188,382.2969 Q997.2344,383.0469 997.2344,384.0781 L997.2344,385.1719 Q997.2344,386.4063 998.125,387.2344 Q999.0156,388.0469 1000.6094,388.0469 Q1001.5469,388.0469 1002.2031,387.7969 Q1002.5938,387.6406 1003.0156,387.2031 Q1003.2813,386.9375 1003.4219,386.8594 Q1003.5781,386.7813 1003.7813,386.7813 Q1004.1094,386.7813 1004.3594,387.0469 Q1004.625,387.2969 1004.625,387.6406 Q1004.625,387.9844 1004.2813,388.3906 Q1003.7813,388.9688 1002.9844,389.2969 Q1001.9063,389.75 1000.6094,389.75 Q999.0938,389.75 997.8906,389.125 Q996.9063,388.625 996.2188,387.5625 Q995.5313,386.4844 995.5313,385.2031 L995.5313,384.0469 Q995.5313,382.7188 996.1406,381.5781 Q996.7656,380.4219 997.8594,379.8125 Q998.9531,379.1875 1000.1875,379.1875 Q1000.9219,379.1875 1001.5625,379.3594 Q1002.2188,379.5156 1002.7656,379.875 Z " fill="#000000"/><text fill="#000000" font-family="sans-serif" font-size="14" lengthAdjust="spacing" textLength="102" x="1014" y="389.7285">StatelessWidget</text><line style="stroke:#181818;stroke-width:0.5;" x1="986" x2="1118" y1="400" y2="400"/><line style="stroke:#181818;stroke-width:0.5;" x1="986" x2="1118" y1="408" y2="408"/></g><!--MD5=[7bfb445536f824127017566b2d23be18]
class medzoom::colors.dart::ColorsSelect--><g id="elem_medzoom::colors.dart::ColorsSelect"><rect codeLine="15" fill="#F1F1F1" height="699.5469" id="medzoom::colors.dart::ColorsSelect" rx="2.5" ry="2.5" style="stroke:#181818;stroke-width:0.5;" width="213" x="1862.5" y="42"/><ellipse cx="1924.75" cy="58" fill="#ADD1B2" rx="11" ry="11" style="stroke:#181818;stroke-width:1.0;"/><path d="M1927.5156,53.875 Q1927.6719,53.6563 1927.8594,53.5469 Q1928.0469,53.4375 1928.2656,53.4375 Q1928.6406,53.4375 1928.875,53.7031 Q1929.1094,53.9531 1929.1094,54.5625 L1929.1094,56.0156 Q1929.1094,56.625 1928.875,56.8906 Q1928.6406,57.1563 1928.2656,57.1563 Q1927.9219,57.1563 1927.7188,56.9531 Q1927.5156,56.7656 1927.4063,56.25 Q1927.3594,55.8906 1927.1719,55.7031 Q1926.8438,55.3281 1926.2344,55.1094 Q1925.625,54.8906 1925,54.8906 Q1924.2344,54.8906 1923.5938,55.2188 Q1922.9688,55.5469 1922.4688,56.2969 Q1921.9844,57.0469 1921.9844,58.0781 L1921.9844,59.1719 Q1921.9844,60.4063 1922.875,61.2344 Q1923.7656,62.0469 1925.3594,62.0469 Q1926.2969,62.0469 1926.9531,61.7969 Q1927.3438,61.6406 1927.7656,61.2031 Q1928.0313,60.9375 1928.1719,60.8594 Q1928.3281,60.7813 1928.5313,60.7813 Q1928.8594,60.7813 1929.1094,61.0469 Q1929.375,61.2969 1929.375,61.6406 Q1929.375,61.9844 1929.0313,62.3906 Q1928.5313,62.9688 1927.7344,63.2969 Q1926.6563,63.75 1925.3594,63.75 Q1923.8438,63.75 1922.6406,63.125 Q1921.6563,62.625 1920.9688,61.5625 Q1920.2813,60.4844 1920.2813,59.2031 L1920.2813,58.0469 Q1920.2813,56.7188 1920.8906,55.5781 Q1921.5156,54.4219 1922.6094,53.8125 Q1923.7031,53.1875 1924.9375,53.1875 Q1925.6719,53.1875 1926.3125,53.3594 Q1926.9688,53.5156 1927.5156,53.875 Z " fill="#000000"/><text fill="#000000" font-family="sans-serif" font-size="14" lengthAdjust="spacing" textLength="80" x="1945.25" y="63.7285">ColorsSelect</text><line style="stroke:#181818;stroke-width:0.5;" x1="1863.5" x2="2074.5" y1="74" y2="74"/><ellipse cx="1873.5" cy="88.3047" fill="none" rx="3" ry="3" style="stroke:#038048;stroke-width:1.0;"/><text fill="#000000" font-family="sans-serif" font-size="14" lengthAdjust="spacing" text-decoration="underline" textLength="110" x="1882.5" y="92.5332">Color appbarTitle</text><ellipse cx="1873.5" cy="105.9141" fill="none" rx="3" ry="3" style="stroke:#038048;stroke-width:1.0;"/><text fill="#000000" font-family="sans-serif" font-size="14" lengthAdjust="spacing" text-decoration="underline" textLength="113" x="1882.5" y="110.1426">Color background</text><ellipse cx="1873.5" cy="123.5234" fill="none" rx="3" ry="3" style="stroke:#038048;stroke-width:1.0;"/><text fill="#000000" font-family="sans-serif" font-size="14" lengthAdjust="spacing" text-decoration="underline" textLength="103" x="1882.5" y="127.752">Color boxBorder</text><ellipse cx="1873.5" cy="141.1328" fill="none" rx="3" ry="3" style="stroke:#038048;stroke-width:1.0;"/><text fill="#000000" font-family="sans-serif" font-size="14" lengthAdjust="spacing" text-decoration="underline" textLength="130" x="1882.5" y="145.3613">Color buttonABorder</text><ellipse cx="1873.5" cy="158.7422" fill="none" rx="3" ry="3" style="stroke:#038048;stroke-width:1.0;"/><text fill="#000000" font-family="sans-serif" font-size="14" lengthAdjust="spacing" text-decoration="underline" textLength="105" x="1882.5" y="162.9707">Color buttonAFill</text><ellipse cx="1873.5" cy="176.3516" fill="none" rx="3" ry="3" style="stroke:#038048;stroke-width:1.0;"/><text fill="#000000" font-family="sans-serif" font-size="14" lengthAdjust="spacing" text-decoration="underline" textLength="114" x="1882.5" y="180.5801">Color buttonAText</text><ellipse cx="1873.5" cy="193.9609" fill="none" rx="3" ry="3" style="stroke:#038048;stroke-width:1.0;"/><text fill="#000000" font-family="sans-serif" font-size="14" lengthAdjust="spacing" text-decoration="underline" textLength="130" x="1882.5" y="198.1895">Color buttonBBorder</text><ellipse cx="1873.5" cy="211.5703" fill="none" rx="3" ry="3" style="stroke:#038048;stroke-width:1.0;"/><text fill="#000000" font-family="sans-serif" font-size="14" lengthAdjust="spacing" text-decoration="underline" textLength="105" x="1882.5" y="215.7988">Color buttonBFill</text><ellipse cx="1873.5" cy="229.1797" fill="none" rx="3" ry="3" style="stroke:#038048;stroke-width:1.0;"/><text fill="#000000" font-family="sans-serif" font-size="14" lengthAdjust="spacing" text-decoration="underline" textLength="114" x="1882.5" y="233.4082">Color buttonBText</text><ellipse cx="1873.5" cy="246.7891" fill="none" rx="3" ry="3" style="stroke:#038048;stroke-width:1.0;"/><text fill="#000000" font-family="sans-serif" font-size="14" lengthAdjust="spacing" text-decoration="underline" textLength="98" x="1882.5" y="251.0176">Color iconBlack</text><ellipse cx="1873.5" cy="264.3984" fill="none" rx="3" ry="3" style="stroke:#038048;stroke-width:1.0;"/><text fill="#000000" font-family="sans-serif" font-size="14" lengthAdjust="spacing" text-decoration="underline" textLength="119" x="1882.5" y="268.627">Color iconDisabled</text><ellipse cx="1873.5" cy="282.0078" fill="none" rx="3" ry="3" style="stroke:#038048;stroke-width:1.0;"/><text fill="#000000" font-family="sans-serif" font-size="14" lengthAdjust="spacing" text-decoration="underline" textLength="116" x="1882.5" y="286.2363">Color iconFavorite</text><ellipse cx="1873.5" cy="299.6172" fill="none" rx="3" ry="3" style="stroke:#038048;stroke-width:1.0;"/><text fill="#000000" font-family="sans-serif" font-size="14" lengthAdjust="spacing" text-decoration="underline" textLength="88" x="1882.5" y="303.8457">Color invisible</text><ellipse cx="1873.5" cy="317.2266" fill="none" rx="3" ry="3" style="stroke:#038048;stroke-width:1.0;"/><text fill="#000000" font-family="sans-serif" font-size="14" lengthAdjust="spacing" text-decoration="underline" textLength="154" x="1882.5" y="321.4551">Color sliderThumbActive</text><ellipse cx="1873.5" cy="334.8359" fill="none" rx="3" ry="3" style="stroke:#038048;stroke-width:1.0;"/><text fill="#000000" font-family="sans-serif" font-size="14" lengthAdjust="spacing" text-decoration="underline" textLength="164" x="1882.5" y="339.0645">Color sliderThumbInactive</text><ellipse cx="1873.5" cy="352.4453" fill="none" rx="3" ry="3" style="stroke:#038048;stroke-width:1.0;"/><text fill="#000000" font-family="sans-serif" font-size="14" lengthAdjust="spacing" text-decoration="underline" textLength="146" x="1882.5" y="356.6738">Color sliderTrackActive</text><ellipse cx="1873.5" cy="370.0547" fill="none" rx="3" ry="3" style="stroke:#038048;stroke-width:1.0;"/><text fill="#000000" font-family="sans-serif" font-size="14" lengthAdjust="spacing" text-decoration="underline" textLength="156" x="1882.5" y="374.2832">Color sliderTrackInactive</text><ellipse cx="1873.5" cy="387.6641" fill="none" rx="3" ry="3" style="stroke:#038048;stroke-width:1.0;"/><text fill="#000000" font-family="sans-serif" font-size="14" lengthAdjust="spacing" text-decoration="underline" textLength="109" x="1882.5" y="391.8926">Color medZoomA</text><ellipse cx="1873.5" cy="405.2734" fill="none" rx="3" ry="3" style="stroke:#038048;stroke-width:1.0;"/><text fill="#000000" font-family="sans-serif" font-size="14" lengthAdjust="spacing" text-decoration="underline" textLength="109" x="1882.5" y="409.502">Color medZoomB</text><ellipse cx="1873.5" cy="422.8828" fill="none" rx="3" ry="3" style="stroke:#038048;stroke-width:1.0;"/><text fill="#000000" font-family="sans-serif" font-size="14" lengthAdjust="spacing" text-decoration="underline" textLength="114" x="1882.5" y="427.1113">Color switchActive</text><ellipse cx="1873.5" cy="440.4922" fill="none" rx="3" ry="3" style="stroke:#038048;stroke-width:1.0;"/><text fill="#000000" font-family="sans-serif" font-size="14" lengthAdjust="spacing" text-decoration="underline" textLength="150" x="1882.5" y="444.7207">Color switchActiveTrack</text><ellipse cx="1873.5" cy="458.1016" fill="none" rx="3" ry="3" style="stroke:#038048;stroke-width:1.0;"/><text fill="#000000" font-family="sans-serif" font-size="14" lengthAdjust="spacing" text-decoration="underline" textLength="124" x="1882.5" y="462.3301">Color switchInactive</text><ellipse cx="1873.5" cy="475.7109" fill="none" rx="3" ry="3" style="stroke:#038048;stroke-width:1.0;"/><text fill="#000000" font-family="sans-serif" font-size="14" lengthAdjust="spacing" text-decoration="underline" textLength="160" x="1882.5" y="479.9395">Color switchInactiveTrack</text><ellipse cx="1873.5" cy="493.3203" fill="none" rx="3" ry="3" style="stroke:#038048;stroke-width:1.0;"/><text fill="#000000" font-family="sans-serif" font-size="14" lengthAdjust="spacing" text-decoration="underline" textLength="142" x="1882.5" y="497.5488">Color switchTileBorder</text><ellipse cx="1873.5" cy="510.9297" fill="none" rx="3" ry="3" style="stroke:#038048;stroke-width:1.0;"/><text fill="#000000" font-family="sans-serif" font-size="14" lengthAdjust="spacing" text-decoration="underline" textLength="117" x="1882.5" y="515.1582">Color switchTileFill</text><ellipse cx="1873.5" cy="528.5391" fill="none" rx="3" ry="3" style="stroke:#038048;stroke-width:1.0;"/><text fill="#000000" font-family="sans-serif" font-size="14" lengthAdjust="spacing" text-decoration="underline" textLength="94" x="1882.5" y="532.7676">Color textBlack</text><ellipse cx="1873.5" cy="546.1484" fill="none" rx="3" ry="3" style="stroke:#038048;stroke-width:1.0;"/><text fill="#000000" font-family="sans-serif" font-size="14" lengthAdjust="spacing" text-decoration="underline" textLength="160" x="1882.5" y="550.377">Color textFieldEdgeWhite</text><ellipse cx="1873.5" cy="563.7578" fill="none" rx="3" ry="3" style="stroke:#038048;stroke-width:1.0;"/><text fill="#000000" font-family="sans-serif" font-size="14" lengthAdjust="spacing" text-decoration="underline" textLength="155" x="1882.5" y="567.9863">Color textFieldEdgeGray</text><ellipse cx="1873.5" cy="581.3672" fill="none" rx="3" ry="3" style="stroke:#038048;stroke-width:1.0;"/><text fill="#000000" font-family="sans-serif" font-size="14" lengthAdjust="spacing" text-decoration="underline" textLength="187" x="1882.5" y="585.5957">Color textFieldFillTransparent</text><ellipse cx="1873.5" cy="598.9766" fill="none" rx="3" ry="3" style="stroke:#038048;stroke-width:1.0;"/><text fill="#000000" font-family="sans-serif" font-size="14" lengthAdjust="spacing" text-decoration="underline" textLength="126" x="1882.5" y="603.2051">Color textFieldLabel</text><ellipse cx="1873.5" cy="616.5859" fill="none" rx="3" ry="3" style="stroke:#038048;stroke-width:1.0;"/><text fill="#000000" font-family="sans-serif" font-size="14" lengthAdjust="spacing" text-decoration="underline" textLength="91" x="1882.5" y="620.8145">Color textGray</text><ellipse cx="1873.5" cy="634.1953" fill="none" rx="3" ry="3" style="stroke:#038048;stroke-width:1.0;"/><text fill="#000000" font-family="sans-serif" font-size="14" lengthAdjust="spacing" text-decoration="underline" textLength="110" x="1882.5" y="638.4238">Color textTileTitle</text><ellipse cx="1873.5" cy="651.8047" fill="none" rx="3" ry="3" style="stroke:#038048;stroke-width:1.0;"/><text fill="#000000" font-family="sans-serif" font-size="14" lengthAdjust="spacing" text-decoration="underline" textLength="87" x="1882.5" y="656.0332">Color textTitle</text><ellipse cx="1873.5" cy="669.4141" fill="none" rx="3" ry="3" style="stroke:#038048;stroke-width:1.0;"/><text fill="#000000" font-family="sans-serif" font-size="14" lengthAdjust="spacing" text-decoration="underline" textLength="96" x="1882.5" y="673.6426">Color textWhite</text><ellipse cx="1873.5" cy="687.0234" fill="none" rx="3" ry="3" style="stroke:#038048;stroke-width:1.0;"/><text fill="#000000" font-family="sans-serif" font-size="14" lengthAdjust="spacing" text-decoration="underline" textLength="90" x="1882.5" y="691.252">Color tileColor</text><ellipse cx="1873.5" cy="704.6328" fill="none" rx="3" ry="3" style="stroke:#038048;stroke-width:1.0;"/><text fill="#000000" font-family="sans-serif" font-size="14" lengthAdjust="spacing" text-decoration="underline" textLength="100" x="1882.5" y="708.8613">Color tileDivider</text><ellipse cx="1873.5" cy="722.2422" fill="none" rx="3" ry="3" style="stroke:#038048;stroke-width:1.0;"/><text fill="#000000" font-family="sans-serif" font-size="14" lengthAdjust="spacing" text-decoration="underline" textLength="105" x="1882.5" y="726.4707">Color tileOverlay</text><line style="stroke:#181818;stroke-width:0.5;" x1="1863.5" x2="2074.5" y1="733.5469" y2="733.5469"/></g><!--MD5=[7ee8008bd02dd47c47fead127d6fe347]
class dart::ui::Color--><g id="elem_dart::ui::Color"><rect fill="#F1F1F1" height="48" id="dart::ui::Color" rx="2.5" ry="2.5" style="stroke:#181818;stroke-width:0.5;" width="66" x="1936" y="862"/><ellipse cx="1951" cy="878" fill="#ADD1B2" rx="11" ry="11" style="stroke:#181818;stroke-width:1.0;"/><path d="M1953.7656,873.875 Q1953.9219,873.6563 1954.1094,873.5469 Q1954.2969,873.4375 1954.5156,873.4375 Q1954.8906,873.4375 1955.125,873.7031 Q1955.3594,873.9531 1955.3594,874.5625 L1955.3594,876.0156 Q1955.3594,876.625 1955.125,876.8906 Q1954.8906,877.1563 1954.5156,877.1563 Q1954.1719,877.1563 1953.9688,876.9531 Q1953.7656,876.7656 1953.6563,876.25 Q1953.6094,875.8906 1953.4219,875.7031 Q1953.0938,875.3281 1952.4844,875.1094 Q1951.875,874.8906 1951.25,874.8906 Q1950.4844,874.8906 1949.8438,875.2188 Q1949.2188,875.5469 1948.7188,876.2969 Q1948.2344,877.0469 1948.2344,878.0781 L1948.2344,879.1719 Q1948.2344,880.4063 1949.125,881.2344 Q1950.0156,882.0469 1951.6094,882.0469 Q1952.5469,882.0469 1953.2031,881.7969 Q1953.5938,881.6406 1954.0156,881.2031 Q1954.2813,880.9375 1954.4219,880.8594 Q1954.5781,880.7813 1954.7813,880.7813 Q1955.1094,880.7813 1955.3594,881.0469 Q1955.625,881.2969 1955.625,881.6406 Q1955.625,881.9844 1955.2813,882.3906 Q1954.7813,882.9688 1953.9844,883.2969 Q1952.9063,883.75 1951.6094,883.75 Q1950.0938,883.75 1948.8906,883.125 Q1947.9063,882.625 1947.2188,881.5625 Q1946.5313,880.4844 1946.5313,879.2031 L1946.5313,878.0469 Q1946.5313,876.7188 1947.1406,875.5781 Q1947.7656,874.4219 1948.8594,873.8125 Q1949.9531,873.1875 1951.1875,873.1875 Q1951.9219,873.1875 1952.5625,873.3594 Q1953.2188,873.5156 1953.7656,873.875 Z " fill="#000000"/><text fill="#000000" font-family="sans-serif" font-size="14" lengthAdjust="spacing" textLength="34" x="1965" y="883.7285">Color</text><line style="stroke:#181818;stroke-width:0.5;" x1="1937" x2="2001" y1="894" y2="894"/><line style="stroke:#181818;stroke-width:0.5;" x1="1937" x2="2001" y1="902" y2="902"/></g><!--MD5=[b8578d59a910d5fe8003f0d87fae34a2]
class medzoom::hildegard_screen.dart::HildegardScreen--><g id="elem_medzoom::hildegard_screen.dart::HildegardScreen"><rect codeLine="57" fill="#F1F1F1" height="65.6094" id="medzoom::hildegard_screen.dart::HildegardScreen" rx="2.5" ry="2.5" style="stroke:#181818;stroke-width:0.5;" width="267" x="754.5" y="853"/><ellipse cx="831.25" cy="869" fill="#ADD1B2" rx="11" ry="11" style="stroke:#181818;stroke-width:1.0;"/><path d="M834.0156,864.875 Q834.1719,864.6563 834.3594,864.5469 Q834.5469,864.4375 834.7656,864.4375 Q835.1406,864.4375 835.375,864.7031 Q835.6094,864.9531 835.6094,865.5625 L835.6094,867.0156 Q835.6094,867.625 835.375,867.8906 Q835.1406,868.1563 834.7656,868.1563 Q834.4219,868.1563 834.2188,867.9531 Q834.0156,867.7656 833.9063,867.25 Q833.8594,866.8906 833.6719,866.7031 Q833.3438,866.3281 832.7344,866.1094 Q832.125,865.8906 831.5,865.8906 Q830.7344,865.8906 830.0938,866.2188 Q829.4688,866.5469 828.9688,867.2969 Q828.4844,868.0469 828.4844,869.0781 L828.4844,870.1719 Q828.4844,871.4063 829.375,872.2344 Q830.2656,873.0469 831.8594,873.0469 Q832.7969,873.0469 833.4531,872.7969 Q833.8438,872.6406 834.2656,872.2031 Q834.5313,871.9375 834.6719,871.8594 Q834.8281,871.7813 835.0313,871.7813 Q835.3594,871.7813 835.6094,872.0469 Q835.875,872.2969 835.875,872.6406 Q835.875,872.9844 835.5313,873.3906 Q835.0313,873.9688 834.2344,874.2969 Q833.1563,874.75 831.8594,874.75 Q830.3438,874.75 829.1406,874.125 Q828.1563,873.625 827.4688,872.5625 Q826.7813,871.4844 826.7813,870.2031 L826.7813,869.0469 Q826.7813,867.7188 827.3906,866.5781 Q828.0156,865.4219 829.1094,864.8125 Q830.2031,864.1875 831.4375,864.1875 Q832.1719,864.1875 832.8125,864.3594 Q833.4688,864.5156 834.0156,864.875 Z " fill="#000000"/><text fill="#000000" font-family="sans-serif" font-size="14" lengthAdjust="spacing" textLength="105" x="851.75" y="874.7285">HildegardScreen</text><line style="stroke:#181818;stroke-width:0.5;" x1="755.5" x2="1020.5" y1="885" y2="885"/><line style="stroke:#181818;stroke-width:0.5;" x1="755.5" x2="1020.5" y1="893" y2="893"/><ellipse cx="765.5" cy="907.3047" fill="#84BE84" rx="3" ry="3" style="stroke:#038048;stroke-width:1.0;"/><text fill="#000000" font-family="sans-serif" font-size="14" lengthAdjust="spacing" textLength="241" x="774.5" y="911.5332">State&lt;HildegardScreen&gt; createState()</text></g><!--MD5=[df8529a0a281cb19b0a63b67137693ff]
class medzoom::hildegard_screen.dart::_HildegardScreenState--><g id="elem_medzoom::hildegard_screen.dart::_HildegardScreenState"><rect codeLine="63" fill="#F1F1F1" height="136.0469" id="medzoom::hildegard_screen.dart::_HildegardScreenState" rx="2.5" ry="2.5" style="stroke:#181818;stroke-width:0.5;" width="178" x="541" y="818"/><ellipse cx="556" cy="834" fill="#ADD1B2" rx="11" ry="11" style="stroke:#181818;stroke-width:1.0;"/><path d="M558.7656,829.875 Q558.9219,829.6563 559.1094,829.5469 Q559.2969,829.4375 559.5156,829.4375 Q559.8906,829.4375 560.125,829.7031 Q560.3594,829.9531 560.3594,830.5625 L560.3594,832.0156 Q560.3594,832.625 560.125,832.8906 Q559.8906,833.1563 559.5156,833.1563 Q559.1719,833.1563 558.9688,832.9531 Q558.7656,832.7656 558.6563,832.25 Q558.6094,831.8906 558.4219,831.7031 Q558.0938,831.3281 557.4844,831.1094 Q556.875,830.8906 556.25,830.8906 Q555.4844,830.8906 554.8438,831.2188 Q554.2188,831.5469 553.7188,832.2969 Q553.2344,833.0469 553.2344,834.0781 L553.2344,835.1719 Q553.2344,836.4063 554.125,837.2344 Q555.0156,838.0469 556.6094,838.0469 Q557.5469,838.0469 558.2031,837.7969 Q558.5938,837.6406 559.0156,837.2031 Q559.2813,836.9375 559.4219,836.8594 Q559.5781,836.7813 559.7813,836.7813 Q560.1094,836.7813 560.3594,837.0469 Q560.625,837.2969 560.625,837.6406 Q560.625,837.9844 560.2813,838.3906 Q559.7813,838.9688 558.9844,839.2969 Q557.9063,839.75 556.6094,839.75 Q555.0938,839.75 553.8906,839.125 Q552.9063,838.625 552.2188,837.5625 Q551.5313,836.4844 551.5313,835.2031 L551.5313,834.0469 Q551.5313,832.7188 552.1406,831.5781 Q552.7656,830.4219 553.8594,829.8125 Q554.9531,829.1875 556.1875,829.1875 Q556.9219,829.1875 557.5625,829.3594 Q558.2188,829.5156 558.7656,829.875 Z " fill="#000000"/><text fill="#000000" font-family="sans-serif" font-size="14" lengthAdjust="spacing" textLength="146" x="570" y="839.7285">_HildegardScreenState</text><line style="stroke:#181818;stroke-width:0.5;" x1="542" x2="718" y1="850" y2="850"/><rect fill="none" height="6" style="stroke:#C82930;stroke-width:1.0;" width="6" x="549" y="861.3047"/><text fill="#000000" font-family="sans-serif" font-size="14" lengthAdjust="spacing" textLength="60" x="561" y="868.5332">String _ip</text><rect fill="none" height="6" style="stroke:#C82930;stroke-width:1.0;" width="6" x="549" y="878.9141"/><text fill="#000000" font-family="sans-serif" font-size="14" lengthAdjust="spacing" textLength="84" x="561" y="886.1426">String _name</text><rect fill="none" height="6" style="stroke:#C82930;stroke-width:1.0;" width="6" x="549" y="896.5234"/><text fill="#000000" font-family="sans-serif" font-size="14" lengthAdjust="spacing" textLength="104" x="561" y="903.752">String _vorname</text><rect fill="none" height="6" style="stroke:#C82930;stroke-width:1.0;" width="6" x="549" y="914.1328"/><text fill="#000000" font-family="sans-serif" font-size="14" lengthAdjust="spacing" textLength="74" x="561" y="921.3613">int _mobility</text><line style="stroke:#181818;stroke-width:0.5;" x1="542" x2="718" y1="928.4375" y2="928.4375"/><ellipse cx="552" cy="942.7422" fill="#84BE84" rx="3" ry="3" style="stroke:#038048;stroke-width:1.0;"/><text fill="#000000" font-family="sans-serif" font-size="14" lengthAdjust="spacing" textLength="88" x="561" y="946.9707">Widget build()</text></g><!--MD5=[11ee7a19f9212eec6a17135f413bfba5]
class medzoom::main.dart::LoginScreen--><g id="elem_medzoom::main.dart::LoginScreen"><rect codeLine="73" fill="#F1F1F1" height="65.6094" id="medzoom::main.dart::LoginScreen" rx="2.5" ry="2.5" style="stroke:#181818;stroke-width:0.5;" width="226" x="1393" y="853"/><ellipse cx="1461.75" cy="869" fill="#ADD1B2" rx="11" ry="11" style="stroke:#181818;stroke-width:1.0;"/><path d="M1464.5156,864.875 Q1464.6719,864.6563 1464.8594,864.5469 Q1465.0469,864.4375 1465.2656,864.4375 Q1465.6406,864.4375 1465.875,864.7031 Q1466.1094,864.9531 1466.1094,865.5625 L1466.1094,867.0156 Q1466.1094,867.625 1465.875,867.8906 Q1465.6406,868.1563 1465.2656,868.1563 Q1464.9219,868.1563 1464.7188,867.9531 Q1464.5156,867.7656 1464.4063,867.25 Q1464.3594,866.8906 1464.1719,866.7031 Q1463.8438,866.3281 1463.2344,866.1094 Q1462.625,865.8906 1462,865.8906 Q1461.2344,865.8906 1460.5938,866.2188 Q1459.9688,866.5469 1459.4688,867.2969 Q1458.9844,868.0469 1458.9844,869.0781 L1458.9844,870.1719 Q1458.9844,871.4063 1459.875,872.2344 Q1460.7656,873.0469 1462.3594,873.0469 Q1463.2969,873.0469 1463.9531,872.7969 Q1464.3438,872.6406 1464.7656,872.2031 Q1465.0313,871.9375 1465.1719,871.8594 Q1465.3281,871.7813 1465.5313,871.7813 Q1465.8594,871.7813 1466.1094,872.0469 Q1466.375,872.2969 1466.375,872.6406 Q1466.375,872.9844 1466.0313,873.3906 Q1465.5313,873.9688 1464.7344,874.2969 Q1463.6563,874.75 1462.3594,874.75 Q1460.8438,874.75 1459.6406,874.125 Q1458.6563,873.625 1457.9688,872.5625 Q1457.2813,871.4844 1457.2813,870.2031 L1457.2813,869.0469 Q1457.2813,867.7188 1457.8906,866.5781 Q1458.5156,865.4219 1459.6094,864.8125 Q1460.7031,864.1875 1461.9375,864.1875 Q1462.6719,864.1875 1463.3125,864.3594 Q1463.9688,864.5156 1464.5156,864.875 Z " fill="#000000"/><text fill="#000000" font-family="sans-serif" font-size="14" lengthAdjust="spacing" textLength="80" x="1482.25" y="874.7285">LoginScreen</text><line style="stroke:#181818;stroke-width:0.5;" x1="1394" x2="1618" y1="885" y2="885"/><line style="stroke:#181818;stroke-width:0.5;" x1="1394" x2="1618" y1="893" y2="893"/><ellipse cx="1404" cy="907.3047" fill="#84BE84" rx="3" ry="3" style="stroke:#038048;stroke-width:1.0;"/><text fill="#000000" font-family="sans-serif" font-size="14" lengthAdjust="spacing" textLength="200" x="1413" y="911.5332">LoginScreenState createState()</text></g><!--MD5=[2172e72c898220c8f0b5a9d457ed4a4a]
class medzoom::main.dart::LoginScreenState--><g id="elem_medzoom::main.dart::LoginScreenState"><rect codeLine="79" fill="#F1F1F1" height="136.0469" id="medzoom::main.dart::LoginScreenState" rx="2.5" ry="2.5" style="stroke:#181818;stroke-width:0.5;" width="280" x="1078" y="818"/><ellipse cx="1157.25" cy="834" fill="#ADD1B2" rx="11" ry="11" style="stroke:#181818;stroke-width:1.0;"/><path d="M1160.0156,829.875 Q1160.1719,829.6563 1160.3594,829.5469 Q1160.5469,829.4375 1160.7656,829.4375 Q1161.1406,829.4375 1161.375,829.7031 Q1161.6094,829.9531 1161.6094,830.5625 L1161.6094,832.0156 Q1161.6094,832.625 1161.375,832.8906 Q1161.1406,833.1563 1160.7656,833.1563 Q1160.4219,833.1563 1160.2188,832.9531 Q1160.0156,832.7656 1159.9063,832.25 Q1159.8594,831.8906 1159.6719,831.7031 Q1159.3438,831.3281 1158.7344,831.1094 Q1158.125,830.8906 1157.5,830.8906 Q1156.7344,830.8906 1156.0938,831.2188 Q1155.4688,831.5469 1154.9688,832.2969 Q1154.4844,833.0469 1154.4844,834.0781 L1154.4844,835.1719 Q1154.4844,836.4063 1155.375,837.2344 Q1156.2656,838.0469 1157.8594,838.0469 Q1158.7969,838.0469 1159.4531,837.7969 Q1159.8438,837.6406 1160.2656,837.2031 Q1160.5313,836.9375 1160.6719,836.8594 Q1160.8281,836.7813 1161.0313,836.7813 Q1161.3594,836.7813 1161.6094,837.0469 Q1161.875,837.2969 1161.875,837.6406 Q1161.875,837.9844 1161.5313,838.3906 Q1161.0313,838.9688 1160.2344,839.2969 Q1159.1563,839.75 1157.8594,839.75 Q1156.3438,839.75 1155.1406,839.125 Q1154.1563,838.625 1153.4688,837.5625 Q1152.7813,836.4844 1152.7813,835.2031 L1152.7813,834.0469 Q1152.7813,832.7188 1153.3906,831.5781 Q1154.0156,830.4219 1155.1094,829.8125 Q1156.2031,829.1875 1157.4375,829.1875 Q1158.1719,829.1875 1158.8125,829.3594 Q1159.4688,829.5156 1160.0156,829.875 Z " fill="#000000"/><text fill="#000000" font-family="sans-serif" font-size="14" lengthAdjust="spacing" textLength="113" x="1177.75" y="839.7285">LoginScreenState</text><line style="stroke:#181818;stroke-width:0.5;" x1="1079" x2="1357" y1="850" y2="850"/><ellipse cx="1089" cy="864.3047" fill="none" rx="3" ry="3" style="stroke:#038048;stroke-width:1.0;"/><text fill="#000000" font-family="sans-serif" font-size="14" lengthAdjust="spacing" textLength="227" x="1098" y="868.5332">TextEditingController emailTextField</text><ellipse cx="1089" cy="881.9141" fill="none" rx="3" ry="3" style="stroke:#038048;stroke-width:1.0;"/><text fill="#000000" font-family="sans-serif" font-size="14" lengthAdjust="spacing" textLength="254" x="1098" y="886.1426">TextEditingController passwordTextField</text><rect fill="none" height="6" style="stroke:#C82930;stroke-width:1.0;" width="6" x="1086" y="896.5234"/><text fill="#000000" font-family="sans-serif" font-size="14" lengthAdjust="spacing" textLength="60" x="1098" y="903.752">String _ip</text><line style="stroke:#181818;stroke-width:0.5;" x1="1079" x2="1357" y1="910.8281" y2="910.8281"/><rect fill="#F24D5C" height="6" style="stroke:#C82930;stroke-width:1.0;" width="6" x="1086" y="922.1328"/><text fill="#000000" font-family="sans-serif" font-size="14" lengthAdjust="spacing" textLength="137" x="1098" y="929.3613">Future&lt;bool&gt; _login()</text><ellipse cx="1089" cy="942.7422" fill="#84BE84" rx="3" ry="3" style="stroke:#038048;stroke-width:1.0;"/><text fill="#000000" font-family="sans-serif" font-size="14" lengthAdjust="spacing" textLength="88" x="1098" y="946.9707">Widget build()</text></g><!--MD5=[40b395e1d1237e82679a917749c88d40]
class flutter::src::widgets::editable_text.dart::TextEditingController--><g id="elem_flutter::src::widgets::editable_text.dart::TextEditingController"><rect fill="#F1F1F1" height="48" id="flutter::src::widgets::editable_text.dart::TextEditingController" rx="2.5" ry="2.5" style="stroke:#181818;stroke-width:0.5;" width="164" x="1136" y="1030"/><ellipse cx="1151" cy="1046" fill="#ADD1B2" rx="11" ry="11" style="stroke:#181818;stroke-width:1.0;"/><path d="M1153.7656,1041.875 Q1153.9219,1041.6563 1154.1094,1041.5469 Q1154.2969,1041.4375 1154.5156,1041.4375 Q1154.8906,1041.4375 1155.125,1041.7031 Q1155.3594,1041.9531 1155.3594,1042.5625 L1155.3594,1044.0156 Q1155.3594,1044.625 1155.125,1044.8906 Q1154.8906,1045.1563 1154.5156,1045.1563 Q1154.1719,1045.1563 1153.9688,1044.9531 Q1153.7656,1044.7656 1153.6563,1044.25 Q1153.6094,1043.8906 1153.4219,1043.7031 Q1153.0938,1043.3281 1152.4844,1043.1094 Q1151.875,1042.8906 1151.25,1042.8906 Q1150.4844,1042.8906 1149.8438,1043.2188 Q1149.2188,1043.5469 1148.7188,1044.2969 Q1148.2344,1045.0469 1148.2344,1046.0781 L1148.2344,1047.1719 Q1148.2344,1048.4063 1149.125,1049.2344 Q1150.0156,1050.0469 1151.6094,1050.0469 Q1152.5469,1050.0469 1153.2031,1049.7969 Q1153.5938,1049.6406 1154.0156,1049.2031 Q1154.2813,1048.9375 1154.4219,1048.8594 Q1154.5781,1048.7813 1154.7813,1048.7813 Q1155.1094,1048.7813 1155.3594,1049.0469 Q1155.625,1049.2969 1155.625,1049.6406 Q1155.625,1049.9844 1155.2813,1050.3906 Q1154.7813,1050.9688 1153.9844,1051.2969 Q1152.9063,1051.75 1151.6094,1051.75 Q1150.0938,1051.75 1148.8906,1051.125 Q1147.9063,1050.625 1147.2188,1049.5625 Q1146.5313,1048.4844 1146.5313,1047.2031 L1146.5313,1046.0469 Q1146.5313,1044.7188 1147.1406,1043.5781 Q1147.7656,1042.4219 1148.8594,1041.8125 Q1149.9531,1041.1875 1151.1875,1041.1875 Q1151.9219,1041.1875 1152.5625,1041.3594 Q1153.2188,1041.5156 1153.7656,1041.875 Z " fill="#000000"/><text fill="#000000" font-family="sans-serif" font-size="14" lengthAdjust="spacing" textLength="132" x="1165" y="1051.7285">TextEditingController</text><line style="stroke:#181818;stroke-width:0.5;" x1="1137" x2="1299" y1="1062" y2="1062"/><line style="stroke:#181818;stroke-width:0.5;" x1="1137" x2="1299" y1="1070" y2="1070"/></g><!--MD5=[5d511071d65f9840e6b0b58591168b8d]
class medzoom::patients_screen.dart::PatientsScreen--><g id="elem_medzoom::patients_screen.dart::PatientsScreen"><rect codeLine="90" fill="#F1F1F1" height="65.6094" id="medzoom::patients_screen.dart::PatientsScreen" rx="2.5" ry="2.5" style="stroke:#181818;stroke-width:0.5;" width="128" x="1675" y="853"/><ellipse cx="1690" cy="869" fill="#ADD1B2" rx="11" ry="11" style="stroke:#181818;stroke-width:1.0;"/><path d="M1692.7656,864.875 Q1692.9219,864.6563 1693.1094,864.5469 Q1693.2969,864.4375 1693.5156,864.4375 Q1693.8906,864.4375 1694.125,864.7031 Q1694.3594,864.9531 1694.3594,865.5625 L1694.3594,867.0156 Q1694.3594,867.625 1694.125,867.8906 Q1693.8906,868.1563 1693.5156,868.1563 Q1693.1719,868.1563 1692.9688,867.9531 Q1692.7656,867.7656 1692.6563,867.25 Q1692.6094,866.8906 1692.4219,866.7031 Q1692.0938,866.3281 1691.4844,866.1094 Q1690.875,865.8906 1690.25,865.8906 Q1689.4844,865.8906 1688.8438,866.2188 Q1688.2188,866.5469 1687.7188,867.2969 Q1687.2344,868.0469 1687.2344,869.0781 L1687.2344,870.1719 Q1687.2344,871.4063 1688.125,872.2344 Q1689.0156,873.0469 1690.6094,873.0469 Q1691.5469,873.0469 1692.2031,872.7969 Q1692.5938,872.6406 1693.0156,872.2031 Q1693.2813,871.9375 1693.4219,871.8594 Q1693.5781,871.7813 1693.7813,871.7813 Q1694.1094,871.7813 1694.3594,872.0469 Q1694.625,872.2969 1694.625,872.6406 Q1694.625,872.9844 1694.2813,873.3906 Q1693.7813,873.9688 1692.9844,874.2969 Q1691.9063,874.75 1690.6094,874.75 Q1689.0938,874.75 1687.8906,874.125 Q1686.9063,873.625 1686.2188,872.5625 Q1685.5313,871.4844 1685.5313,870.2031 L1685.5313,869.0469 Q1685.5313,867.7188 1686.1406,866.5781 Q1686.7656,865.4219 1687.8594,864.8125 Q1688.9531,864.1875 1690.1875,864.1875 Q1690.9219,864.1875 1691.5625,864.3594 Q1692.2188,864.5156 1692.7656,864.875 Z " fill="#000000"/><text fill="#000000" font-family="sans-serif" font-size="14" lengthAdjust="spacing" textLength="96" x="1704" y="874.7285">PatientsScreen</text><line style="stroke:#181818;stroke-width:0.5;" x1="1676" x2="1802" y1="885" y2="885"/><line style="stroke:#181818;stroke-width:0.5;" x1="1676" x2="1802" y1="893" y2="893"/><ellipse cx="1686" cy="907.3047" fill="#84BE84" rx="3" ry="3" style="stroke:#038048;stroke-width:1.0;"/><text fill="#000000" font-family="sans-serif" font-size="14" lengthAdjust="spacing" textLength="88" x="1695" y="911.5332">Widget build()</text></g><!--MD5=[3d3ca9e77199f5f38bc2e65f5dcdc59c]
class medzoom::temp_data.dart::TempData--><g id="elem_medzoom::temp_data.dart::TempData"><rect codeLine="96" fill="#F1F1F1" height="136.0469" id="medzoom::temp_data.dart::TempData" rx="2.5" ry="2.5" style="stroke:#181818;stroke-width:0.5;" width="158" x="2135" y="324"/><ellipse cx="2177" cy="340" fill="#ADD1B2" rx="11" ry="11" style="stroke:#181818;stroke-width:1.0;"/><path d="M2179.7656,335.875 Q2179.9219,335.6563 2180.1094,335.5469 Q2180.2969,335.4375 2180.5156,335.4375 Q2180.8906,335.4375 2181.125,335.7031 Q2181.3594,335.9531 2181.3594,336.5625 L2181.3594,338.0156 Q2181.3594,338.625 2181.125,338.8906 Q2180.8906,339.1563 2180.5156,339.1563 Q2180.1719,339.1563 2179.9688,338.9531 Q2179.7656,338.7656 2179.6563,338.25 Q2179.6094,337.8906 2179.4219,337.7031 Q2179.0938,337.3281 2178.4844,337.1094 Q2177.875,336.8906 2177.25,336.8906 Q2176.4844,336.8906 2175.8438,337.2188 Q2175.2188,337.5469 2174.7188,338.2969 Q2174.2344,339.0469 2174.2344,340.0781 L2174.2344,341.1719 Q2174.2344,342.4063 2175.125,343.2344 Q2176.0156,344.0469 2177.6094,344.0469 Q2178.5469,344.0469 2179.2031,343.7969 Q2179.5938,343.6406 2180.0156,343.2031 Q2180.2813,342.9375 2180.4219,342.8594 Q2180.5781,342.7813 2180.7813,342.7813 Q2181.1094,342.7813 2181.3594,343.0469 Q2181.625,343.2969 2181.625,343.6406 Q2181.625,343.9844 2181.2813,344.3906 Q2180.7813,344.9688 2179.9844,345.2969 Q2178.9063,345.75 2177.6094,345.75 Q2176.0938,345.75 2174.8906,345.125 Q2173.9063,344.625 2173.2188,343.5625 Q2172.5313,342.4844 2172.5313,341.2031 L2172.5313,340.0469 Q2172.5313,338.7188 2173.1406,337.5781 Q2173.7656,336.4219 2174.8594,335.8125 Q2175.9531,335.1875 2177.1875,335.1875 Q2177.9219,335.1875 2178.5625,335.3594 Q2179.2188,335.5156 2179.7656,335.875 Z " fill="#000000"/><text fill="#000000" font-family="sans-serif" font-size="14" lengthAdjust="spacing" textLength="66" x="2197" y="345.7285">TempData</text><line style="stroke:#181818;stroke-width:0.5;" x1="2136" x2="2292" y1="356" y2="356"/><rect fill="none" height="6" style="stroke:#C82930;stroke-width:1.0;" width="6" x="2143" y="367.3047"/><text fill="#000000" font-family="sans-serif" font-size="14" lengthAdjust="spacing" text-decoration="underline" textLength="74" x="2155" y="374.5332">int _mobility</text><rect fill="none" height="6" style="stroke:#C82930;stroke-width:1.0;" width="6" x="2143" y="384.9141"/><text fill="#000000" font-family="sans-serif" font-size="14" lengthAdjust="spacing" text-decoration="underline" textLength="60" x="2155" y="392.1426">String _ip</text><line style="stroke:#181818;stroke-width:0.5;" x1="2136" x2="2292" y1="399.2188" y2="399.2188"/><ellipse cx="2146" cy="413.5234" fill="#84BE84" rx="3" ry="3" style="stroke:#038048;stroke-width:1.0;"/><text fill="#000000" font-family="sans-serif" font-size="14" lengthAdjust="spacing" text-decoration="underline" textLength="96" x="2155" y="417.752">int getMobility()</text><ellipse cx="2146" cy="431.1328" fill="#84BE84" rx="3" ry="3" style="stroke:#038048;stroke-width:1.0;"/><text fill="#000000" font-family="sans-serif" font-size="14" lengthAdjust="spacing" text-decoration="underline" textLength="132" x="2155" y="435.3613">dynamic setMobility()</text><ellipse cx="2146" cy="448.7422" fill="#84BE84" rx="3" ry="3" style="stroke:#038048;stroke-width:1.0;"/><text fill="#000000" font-family="sans-serif" font-size="14" lengthAdjust="spacing" text-decoration="underline" textLength="83" x="2155" y="452.9707">String getIP()</text></g><!--MD5=[69879cfbb449c3050418badd3e5607d9]
reverse link flutter::src::widgets::framework.dart::StatefulWidget to medzoom::account_screen.dart::AccountScreen--><g id="link_flutter::src::widgets::framework.dart::StatefulWidget_medzoom::account_screen.dart::AccountScreen"><path codeLine="7" d="M893.84,436.09 C901.88,515.61 905.73,684.7 808,766 C795.91,776.06 540,769.28 525,774 C474.1,790.01 424.07,826.14 391.81,852.85 " fill="none" id="flutter::src::widgets::framework.dart::StatefulWidget-backto-medzoom::account_screen.dart::AccountScreen" style="stroke:#181818;stroke-width:1.0;"/><polygon fill="none" points="886.88,436.86,891.54,416.19,900.78,435.25,886.88,436.86" style="stroke:#181818;stroke-width:1.0;"/></g><!--MD5=[f3d3dfbae8716e28f0e1b5a9c733183c]
reverse link flutter::src::widgets::framework.dart::State to medzoom::account_screen.dart::_AccountScreenState--><g id="link_flutter::src::widgets::framework.dart::State_medzoom::account_screen.dart::_AccountScreenState"><path codeLine="13" d="M707.88,422.57 C608.02,482.56 379.22,625.56 209,774 C181.19,798.25 153.07,829.46 133.42,852.61 " fill="none" id="flutter::src::widgets::framework.dart::State-backto-medzoom::account_screen.dart::_AccountScreenState" style="stroke:#181818;stroke-width:1.0;"/><polygon fill="none" points="704.49,416.43,725.25,412.18,711.67,428.45,704.49,416.43" style="stroke:#181818;stroke-width:1.0;"/></g><!--MD5=[06951c3b9ba768d131ed0f1037a849ba]
reverse link medzoom::colors.dart::ColorsSelect to dart::ui::Color--><g id="link_medzoom::colors.dart::ColorsSelect_dart::ui::Color"><path codeLine="55" d="M1969,755.28 C1969,800.49 1969,838.89 1969,861.92 " fill="none" id="medzoom::colors.dart::ColorsSelect-backto-dart::ui::Color" style="stroke:#181818;stroke-width:1.0;"/><polygon fill="none" points="1969,742.03,1965,748.03,1969,754.03,1973,748.03,1969,742.03" style="stroke:#181818;stroke-width:1.0;"/></g><!--MD5=[ea3385bd00c5da6399df9a29a5649f15]
reverse link flutter::src::widgets::framework.dart::StatefulWidget to medzoom::hildegard_screen.dart::HildegardScreen--><g id="link_flutter::src::widgets::framework.dart::StatefulWidget_medzoom::hildegard_screen.dart::HildegardScreen"><path codeLine="61" d="M888,436.13 C888,533.18 888,766.98 888,852.75 " fill="none" id="flutter::src::widgets::framework.dart::StatefulWidget-backto-medzoom::hildegard_screen.dart::HildegardScreen" style="stroke:#181818;stroke-width:1.0;"/><polygon fill="none" points="881,436.07,888,416.07,895,436.07,881,436.07" style="stroke:#181818;stroke-width:1.0;"/></g><!--MD5=[183f14bbbdeb50132f9f9ffdd0589dd9]
reverse link flutter::src::widgets::framework.dart::State to medzoom::hildegard_screen.dart::_HildegardScreenState--><g id="link_flutter::src::widgets::framework.dart::State_medzoom::hildegard_screen.dart::_HildegardScreenState"><path codeLine="71" d="M746.91,435.64 C724.6,521.37 674.18,715.17 647.43,817.99 " fill="none" id="flutter::src::widgets::framework.dart::State-backto-medzoom::hildegard_screen.dart::_HildegardScreenState" style="stroke:#181818;stroke-width:1.0;"/><polygon fill="none" points="740.19,433.66,752,416.07,753.74,437.19,740.19,433.66" style="stroke:#181818;stroke-width:1.0;"/></g><!--MD5=[834560a901004811d2b8c6fcf44a886f]
reverse link flutter::src::widgets::framework.dart::StatefulWidget to medzoom::main.dart::LoginScreen--><g id="link_flutter::src::widgets::framework.dart::StatefulWidget_medzoom::main.dart::LoginScreen"><path codeLine="77" d="M882.1,436.17 C873.94,515.82 869.92,685.12 968,766 C985.49,780.42 1354.81,765.95 1376,774 C1418.17,790.02 1456.09,826.15 1479.94,852.86 " fill="none" id="flutter::src::widgets::framework.dart::StatefulWidget-backto-medzoom::main.dart::LoginScreen" style="stroke:#181818;stroke-width:1.0;"/><polygon fill="none" points="875.15,435.28,884.43,416.23,889.06,436.91,875.15,435.28" style="stroke:#181818;stroke-width:1.0;"/></g><!--MD5=[a50c8ab4dc2c1eae62bfe3ec49833aad]
reverse link medzoom::main.dart::LoginScreenState to flutter::src::widgets::editable_text.dart::TextEditingController--><g id="link_medzoom::main.dart::LoginScreenState_flutter::src::widgets::editable_text.dart::TextEditingController"><path codeLine="87" d="M1218,967.05 C1218,989.94 1218,1013.13 1218,1029.64 " fill="none" id="medzoom::main.dart::LoginScreenState-backto-flutter::src::widgets::editable_text.dart::TextEditingController" style="stroke:#181818;stroke-width:1.0;"/><polygon fill="none" points="1218,954.04,1214,960.04,1218,966.04,1222,960.04,1218,954.04" style="stroke:#181818;stroke-width:1.0;"/></g><!--MD5=[5aa141668f2fb89dba902a4c9408dc02]
reverse link flutter::src::widgets::framework.dart::State to medzoom::main.dart::LoginScreenState--><g id="link_flutter::src::widgets::framework.dart::State_medzoom::main.dart::LoginScreenState"><path codeLine="88" d="M748.26,436.11 C733.3,514.95 715.28,681.99 808,766 C817.47,774.58 1025.76,770.3 1038,774 C1069.8,783.62 1101.62,800.31 1129.46,817.87 " fill="none" id="flutter::src::widgets::framework.dart::State-backto-medzoom::main.dart::LoginScreenState" style="stroke:#181818;stroke-width:1.0;"/><polygon fill="none" points="741.44,434.54,752.31,416.35,755.16,437.35,741.44,434.54" style="stroke:#181818;stroke-width:1.0;"/></g><!--MD5=[b52bced85a95b87494f3d7d293992484]
reverse link flutter::src::widgets::framework.dart::StatelessWidget to medzoom::patients_screen.dart::PatientsScreen--><g id="link_flutter::src::widgets::framework.dart::StatelessWidget_medzoom::patients_screen.dart::PatientsScreen"><path codeLine="94" d="M1112.35,425.99 C1221.94,487.26 1458.61,625.91 1635,774 C1663.72,798.11 1692.58,829.63 1712.58,852.91 " fill="none" id="flutter::src::widgets::framework.dart::StatelessWidget-backto-medzoom::patients_screen.dart::PatientsScreen" style="stroke:#181818;stroke-width:1.0;"/><polygon fill="none" points="1108.73,431.99,1094.65,416.15,1115.53,419.75,1108.73,431.99" style="stroke:#181818;stroke-width:1.0;"/></g><!--MD5=[50b2a4d60241bfdaa7e50633edc97ee8]
@startuml
set namespaceSeparator ::

class "medzoom::account_screen.dart::AccountScreen" {
  +State<AccountScreen> createState()
}

"flutter::src::widgets::framework.dart::StatefulWidget" <|- - "medzoom::account_screen.dart::AccountScreen"

class "medzoom::account_screen.dart::_AccountScreenState" {
  +Widget build()
}

"flutter::src::widgets::framework.dart::State" <|- - "medzoom::account_screen.dart::_AccountScreenState"

class "medzoom::colors.dart::ColorsSelect" {
  {static} +Color appbarTitle
  {static} +Color background
  {static} +Color boxBorder
  {static} +Color buttonABorder
  {static} +Color buttonAFill
  {static} +Color buttonAText
  {static} +Color buttonBBorder
  {static} +Color buttonBFill
  {static} +Color buttonBText
  {static} +Color iconBlack
  {static} +Color iconDisabled
  {static} +Color iconFavorite
  {static} +Color invisible
  {static} +Color sliderThumbActive
  {static} +Color sliderThumbInactive
  {static} +Color sliderTrackActive
  {static} +Color sliderTrackInactive
  {static} +Color medZoomA
  {static} +Color medZoomB
  {static} +Color switchActive
  {static} +Color switchActiveTrack
  {static} +Color switchInactive
  {static} +Color switchInactiveTrack
  {static} +Color switchTileBorder
  {static} +Color switchTileFill
  {static} +Color textBlack
  {static} +Color textFieldEdgeWhite
  {static} +Color textFieldEdgeGray
  {static} +Color textFieldFillTransparent
  {static} +Color textFieldLabel
  {static} +Color textGray
  {static} +Color textTileTitle
  {static} +Color textTitle
  {static} +Color textWhite
  {static} +Color tileColor
  {static} +Color tileDivider
  {static} +Color tileOverlay
}

"medzoom::colors.dart::ColorsSelect" o- - "dart::ui::Color"

class "medzoom::hildegard_screen.dart::HildegardScreen" {
  +State<HildegardScreen> createState()
}

"flutter::src::widgets::framework.dart::StatefulWidget" <|- - "medzoom::hildegard_screen.dart::HildegardScreen"

class "medzoom::hildegard_screen.dart::_HildegardScreenState" {        
  -String _ip
  -String _name
  -String _vorname
  -int _mobility
  +Widget build()
}

"flutter::src::widgets::framework.dart::State" <|- - "medzoom::hildegard_screen.dart::_HildegardScreenState"

class "medzoom::main.dart::LoginScreen" {
  +LoginScreenState createState()
}

"flutter::src::widgets::framework.dart::StatefulWidget" <|- - "medzoom::main.dart::LoginScreen"

class "medzoom::main.dart::LoginScreenState" {
  +TextEditingController emailTextField
  +TextEditingController passwordTextField
  -String _ip
  -Future<bool> _login()
  +Widget build()
}

"medzoom::main.dart::LoginScreenState" o- - "flutter::src::widgets::editable_text.dart::TextEditingController"
"flutter::src::widgets::framework.dart::State" <|- - "medzoom::main.dart::LoginScreenState"

class "medzoom::patients_screen.dart::PatientsScreen" {
  +Widget build()
}

"flutter::src::widgets::framework.dart::StatelessWidget" <|- - "medzoom::patients_screen.dart::PatientsScreen"

class "medzoom::temp_data.dart::TempData" {
  {static} -int _mobility
  {static} -String _ip
  {static} +int getMobility()
  {static} +dynamic setMobility()
  {static} +String getIP()
}
@end

PlantUML version 1.2022.7(Mon Aug 22 19:01:30 CEST 2022)
(GPL source distribution)
Java Runtime: OpenJDK Runtime Environment
JVM: OpenJDK 64-Bit Server VM
Default Encoding: Cp1252
Language: de
Country: DE
--></g></svg>